<svg width="30" height="30" viewBox="0 0 30 30" fill="none" xmlns="http://www.w3.org/2000/svg">
<g clip-path="url(#clip0_344_4)">
<path d="M1.07143 26.7858V3.21439C1.07143 2.64607 1.29719 2.10103 1.69905 1.69916C2.10092 1.2973 2.64596 1.07153 3.21428 1.07153H26.7857C27.354 1.07153 27.8991 1.2973 28.3009 1.69916C28.7028 2.10103 28.9286 2.64607 28.9286 3.21439V26.7858C28.9286 27.3541 28.7028 27.8992 28.3009 28.301C27.8991 28.7029 27.354 28.9287 26.7857 28.9287H20.3571V18.7715H21.8786C22.2252 18.7715 22.5577 18.6338 22.8029 18.3887C23.048 18.1435 23.1857 17.8111 23.1857 17.4644V15.8144C23.1857 15.4677 23.048 15.1352 22.8029 14.8901C22.5577 14.645 22.2252 14.5072 21.8786 14.5072H20.4429V12.493C20.4429 10.693 21.2571 10.693 22.0714 10.693H23.1214C23.2939 10.7001 23.4658 10.6692 23.625 10.6026C23.7842 10.5359 23.9269 10.4351 24.0429 10.3072C24.1674 10.1887 24.266 10.0456 24.3324 9.88699C24.3988 9.72839 24.4315 9.55773 24.4286 9.38582V7.80011C24.4343 7.62561 24.4056 7.4517 24.344 7.28832C24.2825 7.12494 24.1894 6.97528 24.07 6.84791C23.9505 6.72055 23.8072 6.61796 23.6481 6.54603C23.4891 6.47409 23.3174 6.43421 23.1429 6.42868H20.6786C19.9595 6.40164 19.2432 6.53102 18.579 6.80787C17.9149 7.08472 17.3187 7.50244 16.8318 8.03218C16.3448 8.56192 15.9787 9.19106 15.7586 9.87613C15.5385 10.5612 15.4698 11.2859 15.5571 12.0001V14.5072H14.1857C14.0123 14.5044 13.84 14.5361 13.6789 14.6005C13.5178 14.6649 13.3712 14.7608 13.2475 14.8824C13.1239 15.0041 13.0257 15.1492 12.9587 15.3092C12.8916 15.4692 12.8571 15.6409 12.8571 15.8144V17.4644C12.8571 17.6379 12.8916 17.8096 12.9587 17.9696C13.0257 18.1296 13.1239 18.2747 13.2475 18.3963C13.3712 18.518 13.5178 18.6138 13.6789 18.6783C13.84 18.7427 14.0123 18.7744 14.1857 18.7715H15.5571V28.9287H3.21428C2.64596 28.9287 2.10092 28.7029 1.69905 28.301C1.29719 27.8992 1.07143 27.3541 1.07143 26.7858Z" stroke="#FFFAFA" stroke-width="2.5" stroke-linecap="round" stroke-linejoin="round"/>
</g>
<defs>
<clipPath id="clip0_344_4">
<rect width="30" height="30" fill="white"/>
</clipPath>
</defs>
</svg>
