<svg width="21" height="20" viewBox="0 0 21 20" fill="none" xmlns="http://www.w3.org/2000/svg">
<path d="M6.75007 0H15.1501C18.3501 0 20.9501 2.6 20.9501 5.8V14.2C20.9501 15.7383 20.339 17.2135 19.2513 18.3012C18.1636 19.3889 16.6883 20 15.1501 20H6.75007C3.55007 20 0.950073 17.4 0.950073 14.2V5.8C0.950073 4.26174 1.56114 2.78649 2.64885 1.69878C3.73657 0.61107 5.21182 0 6.75007 0ZM6.55007 2C5.59529 2 4.67962 2.37928 4.00449 3.05442C3.32936 3.72955 2.95007 4.64522 2.95007 5.6V14.4C2.95007 16.39 4.56007 18 6.55007 18H15.3501C16.3049 18 17.2205 17.6207 17.8957 16.9456C18.5708 16.2705 18.9501 15.3548 18.9501 14.4V5.6C18.9501 3.61 17.3401 2 15.3501 2H6.55007ZM16.2001 3.5C16.5316 3.5 16.8495 3.6317 17.084 3.86612C17.3184 4.10054 17.4501 4.41848 17.4501 4.75C17.4501 5.08152 17.3184 5.39946 17.084 5.63388C16.8495 5.8683 16.5316 6 16.2001 6C15.8686 6 15.5506 5.8683 15.3162 5.63388C15.0818 5.39946 14.9501 5.08152 14.9501 4.75C14.9501 4.41848 15.0818 4.10054 15.3162 3.86612C15.5506 3.6317 15.8686 3.5 16.2001 3.5ZM10.9501 5C12.2762 5 13.5479 5.52678 14.4856 6.46447C15.4233 7.40215 15.9501 8.67392 15.9501 10C15.9501 11.3261 15.4233 12.5979 14.4856 13.5355C13.5479 14.4732 12.2762 15 10.9501 15C9.62399 15 8.35222 14.4732 7.41454 13.5355C6.47686 12.5979 5.95007 11.3261 5.95007 10C5.95007 8.67392 6.47686 7.40215 7.41454 6.46447C8.35222 5.52678 9.62399 5 10.9501 5ZM10.9501 7C10.1544 7 9.39136 7.31607 8.82875 7.87868C8.26614 8.44129 7.95007 9.20435 7.95007 10C7.95007 10.7956 8.26614 11.5587 8.82875 12.1213C9.39136 12.6839 10.1544 13 10.9501 13C11.7457 13 12.5088 12.6839 13.0714 12.1213C13.634 11.5587 13.9501 10.7956 13.9501 10C13.9501 9.20435 13.634 8.44129 13.0714 7.87868C12.5088 7.31607 11.7457 7 10.9501 7Z" fill="white"/>
</svg>
