<svg width="21" height="20" viewBox="0 0 21 20" fill="none" xmlns="http://www.w3.org/2000/svg">
<path d="M6.70002 0H15.1C18.3 0 20.9 2.6 20.9 5.8V14.2C20.9 15.7383 20.289 17.2135 19.2012 18.3012C18.1135 19.3889 16.6383 20 15.1 20H6.70002C3.50002 20 0.900024 17.4 0.900024 14.2V5.8C0.900024 4.26174 1.51109 2.78649 2.59881 1.69878C3.68652 0.61107 5.16177 0 6.70002 0ZM6.50002 2C5.54525 2 4.62957 2.37928 3.95444 3.05442C3.27931 3.72955 2.90002 4.64522 2.90002 5.6V14.4C2.90002 16.39 4.51002 18 6.50002 18H15.3C16.2548 18 17.1705 17.6207 17.8456 16.9456C18.5207 16.2705 18.9 15.3548 18.9 14.4V5.6C18.9 3.61 17.29 2 15.3 2H6.50002ZM16.15 3.5C16.4815 3.5 16.7995 3.6317 17.0339 3.86612C17.2683 4.10054 17.4 4.41848 17.4 4.75C17.4 5.08152 17.2683 5.39946 17.0339 5.63388C16.7995 5.8683 16.4815 6 16.15 6C15.8185 6 15.5006 5.8683 15.2661 5.63388C15.0317 5.39946 14.9 5.08152 14.9 4.75C14.9 4.41848 15.0317 4.10054 15.2661 3.86612C15.5006 3.6317 15.8185 3.5 16.15 3.5ZM10.9 5C12.2261 5 13.4979 5.52678 14.4356 6.46447C15.3732 7.40215 15.9 8.67392 15.9 10C15.9 11.3261 15.3732 12.5979 14.4356 13.5355C13.4979 14.4732 12.2261 15 10.9 15C9.57394 15 8.30217 14.4732 7.36449 13.5355C6.42681 12.5979 5.90002 11.3261 5.90002 10C5.90002 8.67392 6.42681 7.40215 7.36449 6.46447C8.30217 5.52678 9.57394 5 10.9 5ZM10.9 7C10.1044 7 9.34131 7.31607 8.7787 7.87868C8.21609 8.44129 7.90002 9.20435 7.90002 10C7.90002 10.7956 8.21609 11.5587 8.7787 12.1213C9.34131 12.6839 10.1044 13 10.9 13C11.6957 13 12.4587 12.6839 13.0213 12.1213C13.584 11.5587 13.9 10.7956 13.9 10C13.9 9.20435 13.584 8.44129 13.0213 7.87868C12.4587 7.31607 11.6957 7 10.9 7Z" fill="#495057"/>
</svg>
