<svg width="23" height="24" viewBox="0 0 23 24" fill="none" xmlns="http://www.w3.org/2000/svg">
<path d="M19.339 10C19.339 17 11.0508 23 11.0508 23C11.0508 23 2.7627 17 2.7627 10C2.7627 7.61305 3.63591 5.32387 5.19023 3.63604C6.74456 1.94821 8.85268 1 11.0508 1C13.249 1 15.3571 1.94821 16.9114 3.63604C18.4658 5.32387 19.339 7.61305 19.339 10Z" stroke="white" stroke-width="2" stroke-linecap="round" stroke-linejoin="round"/>
<path d="M11.0509 13C12.5767 13 13.8136 11.6569 13.8136 10C13.8136 8.34315 12.5767 7 11.0509 7C9.52505 7 8.28815 8.34315 8.28815 10C8.28815 11.6569 9.52505 13 11.0509 13Z" stroke="white" stroke-width="2" stroke-linecap="round" stroke-linejoin="round"/>
</svg>
