<svg width="29" height="33" viewBox="0 0 29 33" fill="none" xmlns="http://www.w3.org/2000/svg">
<path d="M24.2727 24.2738L16.5399 32.0088C16.2351 32.3137 15.8733 32.5556 15.4751 32.7206C15.0769 32.8856 14.65 32.9706 14.2189 32.9706C13.7878 32.9706 13.361 32.8856 12.9628 32.7206C12.5645 32.5556 12.2027 32.3137 11.898 32.0088L4.16517 24.2738C2.84475 22.9535 1.79731 21.3861 1.08265 19.661C0.367986 17.9359 0.000101599 16.087 2.10411e-08 14.2197C-0.000101557 12.3524 0.367581 10.5034 1.08205 8.77829C1.79653 7.05313 2.8438 5.48559 4.16408 4.16517C5.48436 2.84475 7.05178 1.79731 8.77686 1.08265C10.5019 0.367985 12.3509 0.000101571 14.2182 2.10296e-08C16.0854 -0.000101529 17.9344 0.367581 19.6596 1.08206C21.3847 1.79653 22.9523 2.8438 24.2727 4.16408C25.5932 5.48444 26.6407 7.05199 27.3554 8.77721C28.0701 10.5024 28.4379 12.3515 28.4379 14.2189C28.4379 16.0863 28.0701 17.9354 27.3554 19.6606C26.6407 21.3859 25.5932 22.9534 24.2727 24.2738ZM21.9539 6.48502C19.9025 4.43357 17.1201 3.27889 14.2189 3.27889C11.3177 3.27889 8.53537 4.43138 6.48392 6.48283C4.43247 8.53428 3.27998 11.3166 3.27998 14.2178C3.27998 17.119 4.43247 19.9014 6.48392 21.9528L14.2189 29.6856L21.9539 21.955C22.9699 20.9393 23.7758 19.7335 24.3256 18.4063C24.8755 17.0791 25.1585 15.6566 25.1585 14.22C25.1585 12.7834 24.8755 11.3609 24.3256 10.0338C23.7758 8.70656 22.9699 7.5007 21.9539 6.48502ZM14.2189 18.595C13.6363 18.6082 13.0569 18.5048 12.5148 18.291C11.9727 18.0772 11.4787 17.7572 11.062 17.3499C10.6452 16.9425 10.314 16.456 10.0879 15.919C9.86173 15.3819 9.74516 14.805 9.74501 14.2222C9.74487 13.6395 9.86115 13.0625 10.087 12.5253C10.3129 11.9881 10.6439 11.5015 11.0604 11.0939C11.477 10.6864 11.9708 10.3661 12.5128 10.1521C13.0548 9.93797 13.6341 9.83432 14.2167 9.8472C15.3598 9.87248 16.4476 10.3443 17.2472 11.1615C18.0468 11.9788 18.4947 13.0767 18.495 14.22C18.4953 15.3634 18.048 16.4615 17.2488 17.2792C16.4496 18.0968 15.362 18.5692 14.2189 18.595Z" fill="#FFFAFA"/>
</svg>
