<svg width="19" height="18" viewBox="0 0 19 18" fill="none" xmlns="http://www.w3.org/2000/svg">
<path d="M0.629883 1.001C0.497275 1.001 0.370098 0.948322 0.27633 0.854553C0.182561 0.760785 0.129883 0.633608 0.129883 0.501C0.129883 0.368392 0.182561 0.241215 0.27633 0.147447C0.370098 0.0536784 0.497275 0.000999928 0.629883 0.000999928L17.5039 0C17.6365 3.95203e-09 17.7637 0.0526783 17.8574 0.146446C17.9512 0.240215 18.0039 0.367392 18.0039 0.5C18.0039 0.632608 17.9512 0.759785 17.8574 0.853553C17.7637 0.947321 17.6365 1 17.5039 1L0.629883 1.001ZM0.629883 9.439C0.497275 9.439 0.370098 9.38632 0.27633 9.29255C0.182561 9.19878 0.129883 9.07161 0.129883 8.939C0.129883 8.80639 0.182561 8.67921 0.27633 8.58545C0.370098 8.49168 0.497275 8.439 0.629883 8.439L17.5039 8.437C17.6365 8.437 17.7637 8.48968 17.8574 8.58345C17.9512 8.67721 18.0039 8.80439 18.0039 8.937C18.0039 9.06961 17.9512 9.19678 17.8574 9.29055C17.7637 9.38432 17.6365 9.437 17.5039 9.437L0.629883 9.439ZM0.629883 17.877C0.497275 17.877 0.370098 17.8243 0.27633 17.7306C0.182561 17.6368 0.129883 17.5096 0.129883 17.377C0.129883 17.2444 0.182561 17.1172 0.27633 17.0234C0.370098 16.9297 0.497275 16.877 0.629883 16.877L17.5039 16.875C17.6365 16.875 17.7637 16.9277 17.8574 17.0214C17.9512 17.1152 18.0039 17.2424 18.0039 17.375C18.0039 17.5076 17.9512 17.6348 17.8574 17.7286C17.7637 17.8223 17.6365 17.875 17.5039 17.875L0.629883 17.877Z" fill="#F14723"/>
</svg>
